<?xml version="1.0" encoding="UTF-8"?>
<svg width="85px" height="85px" viewBox="0 0 85 85" version="1.1" xmlns="http://www.w3.org/2000/svg" xmlns:xlink="http://www.w3.org/1999/xlink">
    <title>Arrow-white</title>
    <g id="Page-1" stroke="none" stroke-width="1" fill="none" fill-rule="evenodd">
        <g id="Arrow-white" transform="translate(0.246958, 0.144700)">
            <rect id="Rectangle-Copy" x="0" y="0" width="84.2422" height="84.2422"></rect>
            <path d="M51.6234929,20.7339225 C52.1932998,20.7339225 52.7421027,20.937642 53.1725259,21.3047465 L53.3114822,21.4331106 L72.3114822,40.4331106 C73.201358,41.3229864 73.2418069,42.7406283 72.4328289,43.6784828 L72.3114822,43.8090894 L53.3114822,62.8090894 C52.3792314,63.7413402 50.8677543,63.7413402 49.9355035,62.8090894 C49.0456277,61.9192136 49.0051788,60.5015717 49.8141568,59.5637172 L49.9355035,59.4331106 L67.2465409,42.1202422 L50.6345409,25.5082422 L38.3865409,25.5082422 L53.3114822,40.4331106 C54.201358,41.3229864 54.2418069,42.7406283 53.4328289,43.6784828 L53.3114822,43.8090894 L34.3114822,62.8090894 C33.9085679,63.2120037 33.3764542,63.4560146 32.812517,63.5007876 L32.6234929,63.5082775 L13.6234929,63.5082775 C11.5499136,63.5082775 10.485583,61.0639079 11.8275088,59.5478432 L11.9355035,59.4331106 L29.2465409,42.1202422 L11.9355035,24.8090894 C11.0456277,23.9192136 11.0051788,22.5015717 11.8141568,21.5637172 L11.9355035,21.4331106 C12.8253792,20.5432349 14.2430212,20.502786 15.1808757,21.3117639 L15.3114822,21.4331106 L34.3114822,40.4331106 C35.201358,41.3229864 35.2418069,42.7406283 34.4328289,43.6784828 L34.3114822,43.8090894 L19.3855409,58.7332422 L31.6335409,58.7332422 L48.2465409,42.1202422 L30.9355035,24.8090894 C29.4692615,23.3428474 30.4450965,20.8618218 32.4660009,20.7386869 L32.6234929,20.7339225 L51.6234929,20.7339225 Z" id="Path-4-Copy-2" fill="#FFFFFF" fill-rule="nonzero"></path>
        </g>
    </g>
</svg>