<svg xmlns="http://www.w3.org/2000/svg" width="321" height="46"><g fill="#020057" fill-rule="nonzero"><path d="M74.873 44.65V2.05h15.904c4.673 0 8.581.95 11.726 2.85 3.145 1.9 5.512 4.46 7.103 7.68 1.59 3.22 2.386 6.79 2.386 10.71 0 4.32-.875 8.08-2.626 11.28-1.75 3.2-4.215 5.68-7.394 7.44-3.179 1.76-6.91 2.64-11.195 2.64H74.873Zm27.128-21.36c0-2.494-.442-4.692-1.326-6.593-.883-1.902-2.163-3.383-3.838-4.444-1.676-1.061-3.695-1.592-6.06-1.592H84.72v25.378h6.057c2.405 0 4.437-.554 6.099-1.66 1.66-1.108 2.93-2.63 3.808-4.564.878-1.936 1.317-4.11 1.317-6.525Zm47.212 21.36V19.245l-9.17 18.497h-5.375l-9.188-18.497V44.65h-9.847V2.05h10.697l11.016 22.282L148.422 2.05h10.637v42.6h-9.846Zm15.814 0V2.05h18.183c2.02 0 3.882.413 5.584 1.238a14.253 14.253 0 0 1 4.42 3.311 15.385 15.385 0 0 1 2.889 4.65 14.09 14.09 0 0 1 1.024 5.241c0 2.443-.57 4.766-1.709 6.969a14.441 14.441 0 0 1-4.75 5.38c-2.029 1.385-4.409 2.078-7.14 2.078h-8.655V44.65h-9.846Zm9.846-22.344h8.016c.774 0 1.478-.217 2.112-.65.634-.433 1.148-1.09 1.543-1.97.394-.88.59-1.952.59-3.216 0-1.338-.225-2.438-.677-3.298-.451-.86-1.024-1.493-1.719-1.9-.694-.407-1.416-.611-2.167-.611h-7.698v11.645ZM242.366 6.85h-14.7v37.8h-5.4V6.85h-14.7v-4.8h34.8zM252.865 45.25c-2.36 0-4.5-.43-6.42-1.29-1.92-.86-3.58-2.04-4.98-3.54a16.04 16.04 0 0 1-3.24-5.18c-.76-1.952-1.14-4.016-1.14-6.19 0-2.214.38-4.298 1.14-6.25a16.04 16.04 0 0 1 3.24-5.18c1.4-1.5 3.07-2.68 5.01-3.54 1.94-.86 4.08-1.29 6.42-1.29s4.47.43 6.39 1.29c1.92.86 3.59 2.04 5.01 3.54s2.51 3.226 3.27 5.18c.76 1.952 1.14 4.036 1.14 6.25 0 2.174-.38 4.238-1.14 6.19a16.04 16.04 0 0 1-3.24 5.18c-1.4 1.5-3.07 2.68-5.01 3.54-1.94.86-4.09 1.29-6.45 1.29Zm-10.38-16.146c0 2.164.47 4.126 1.41 5.886.94 1.76 2.19 3.15 3.75 4.17s3.3 1.53 5.22 1.53 3.67-.52 5.25-1.56 2.84-2.45 3.78-4.23c.94-1.78 1.41-3.75 1.41-5.91s-.47-4.12-1.41-5.88c-.94-1.76-2.202-3.16-3.788-4.2a9.359 9.359 0 0 0-5.242-1.56c-1.92 0-3.663.532-5.229 1.595-1.566 1.063-2.816 2.473-3.75 4.23-.934 1.757-1.4 3.733-1.4 5.93ZM287.005 45.25c-2.36 0-4.5-.43-6.42-1.29-1.92-.86-3.58-2.04-4.98-3.54a16.04 16.04 0 0 1-3.24-5.18c-.76-1.952-1.14-4.016-1.14-6.19 0-2.214.38-4.298 1.14-6.25a16.04 16.04 0 0 1 3.24-5.18c1.4-1.5 3.07-2.68 5.01-3.54 1.94-.86 4.08-1.29 6.42-1.29s4.47.43 6.39 1.29c1.92.86 3.59 2.04 5.01 3.54s2.51 3.226 3.27 5.18c.76 1.952 1.14 4.036 1.14 6.25 0 2.174-.38 4.238-1.14 6.19a16.04 16.04 0 0 1-3.24 5.18c-1.4 1.5-3.07 2.68-5.01 3.54-1.94.86-4.09 1.29-6.45 1.29Zm-10.38-16.146c0 2.164.47 4.126 1.41 5.886.94 1.76 2.19 3.15 3.75 4.17s3.3 1.53 5.22 1.53 3.67-.52 5.25-1.56 2.84-2.45 3.78-4.23c.94-1.78 1.41-3.75 1.41-5.91s-.47-4.12-1.41-5.88c-.94-1.76-2.202-3.16-3.788-4.2a9.359 9.359 0 0 0-5.242-1.56c-1.92 0-3.663.532-5.229 1.595-1.566 1.063-2.816 2.473-3.75 4.23-.934 1.757-1.4 3.733-1.4 5.93ZM307.585.85h5.28v35.7c0 1.72.24 2.78.72 3.18.48.4 1.06.6 1.74.6.84 0 1.64-.09 2.4-.27.76-.18 1.4-.37 1.92-.57l.84 4.32c-.88.36-1.92.66-3.12.9-1.2.24-2.26.36-3.18.36-2.04 0-3.65-.58-4.83-1.74-1.18-1.16-1.77-2.78-1.77-4.86V.85ZM40.455 2.508c.57 0 1.118.203 1.549.57l.139.129 19 19c.89.89.93 2.307.121 3.245l-.121.13-19 19a2.387 2.387 0 0 1-3.498-3.245l.122-.13 17.311-17.313L39.466 7.282H27.218l14.925 14.925c.89.89.93 2.307.121 3.245l-.121.13-19 19a2.387 2.387 0 0 1-1.5.693l-.188.007h-19c-2.074 0-3.138-2.444-1.796-3.96l.108-.115 17.311-17.313L.767 6.583a2.387 2.387 0 0 1-.122-3.246l.122-.13c.89-.89 2.307-.93 3.245-.121l.13.12 19 19c.89.89.931 2.308.122 3.246l-.121.13L8.217 40.508h12.248l16.613-16.613L19.767 6.583c-1.467-1.466-.49-3.947 1.53-4.07l.158-.005h19Z"/></g></svg>