<svg xmlns="http://www.w3.org/2000/svg" style="display: none;">
  <symbol id="icon-home" viewBox="0 -960 960 960">
    <path d="M240-200h120v-240h240v240h120v-360L480-740 240-560v360Zm-80 80v-480l320-240 320 240v480H520v-240h-80v240H160Zm320-350Z"/>
  </symbol>

  <symbol id="icon-cancel" viewBox="0 -960 960 960">
    <path d="m336-280 144-144 144 144 56-56-144-144 144-144-56-56-144 144-144-144-56 56 144 144-144 144 56 56ZM480-80q-83 0-156-31.5T197-197q-54-54-85.5-127T80-480q0-83 31.5-156T197-763q54-54 127-85.5T480-880q83 0 156 31.5T763-763q54 54 85.5 127T880-480q0 83-31.5 156T763-197q-54 54-127 85.5T480-80Zm0-80q134 0 227-93t93-227q0-134-93-227t-227-93q-134 0-227 93t-93 227q0 134 93 227t227 93Zm0-320Z"/>
  </symbol>

  <symbol id="icon-trashcan" viewBox="0 -960 960 960">
    <path d="M280-120q-33 0-56.5-23.5T200-200v-520h-40v-80h200v-40h240v40h200v80h-40v520q0 33-23.5 56.5T680-120H280Zm400-600H280v520h400v-520ZM360-280h80v-360h-80v360Zm160 0h80v-360h-80v360ZM280-720v520-520Z"/>
  </symbol>

  <symbol id="icon-search" viewBox="0 -960 960 960">
    <path d="M784-120 532-372q-30 24-69 38t-83 14q-109 0-184.5-75.5T120-580q0-109 75.5-184.5T380-840q109 0 184.5 75.5T640-580q0 44-14 83t-38 69l252 252-56 56ZM380-400q75 0 127.5-52.5T560-580q0-75-52.5-127.5T380-760q-75 0-127.5 52.5T200-580q0 75 52.5 127.5T380-400Z"/>
  </symbol>

  <symbol id="icon-settings" viewBox="0 -960 960 960">
    <path d="m370-80-16-128q-13-5-24.5-12T307-235l-119 50L78-375l103-78q-1-7-1-13.5v-27q0-6.5 1-13.5L78-585l110-190 119 50q11-8 23-15t24-12l16-128h220l16 128q13 5 24.5 12t22.5 15l119-50 110 190-103 78q1 7 1 13.5v27q0 6.5-2 13.5l103 78-110 190-118-50q-11 8-23 15t-24 12L590-80H370Zm70-80h79l14-106q31-8 57.5-23.5T639-327l99 41 39-68-86-65q5-14 7-29.5t2-31.5q0-16-2-31.5t-7-29.5l86-65-39-68-99 42q-22-23-48.5-38.5T533-694l-13-106h-79l-14 106q-31 8-57.5 23.5T321-633l-99-41-39 68 86 64q-5 15-7 30t-2 32q0 16 2 31t7 30l-86 65 39 68 99-42q22 23 48.5 38.5T427-266l13 106Zm42-180q58 0 99-41t41-99q0-58-41-99t-99-41q-59 0-99.5 41T342-480q0 58 40.5 99t99.5 41Zm-2-140Z"/>
  </symbol>

  <symbol id="icon-favorite" viewBox="0 -960 960 960">
    <path d="m480-120-58-52q-101-91-167-157T150-447.5Q111-500 95.5-544T80-634q0-94 63-157t157-63q52 0 99 22t81 62q34-40 81-62t99-22q94 0 157 63t63 157q0 46-15.5 90T810-447.5Q771-395 705-329T538-172l-58 52Zm0-108q96-86 158-147.5t98-107q36-45.5 50-81t14-70.5q0-60-40-100t-100-40q-47 0-87 26.5T518-680h-76q-15-41-55-67.5T300-774q-60 0-100 40t-40 100q0 35 14 70.5t50 81q36 45.5 98 107T480-228Zm0-273Z"/>
  </symbol>

  <symbol id="icon-table" viewBox="0 -960 960 960">
    <path d="M120-200v-560q0-33 23.5-56.5T200-840h560q33 0 56.5 23.5T840-760v560q0 33-23.5 56.5T760-120H200q-33 0-56.5-23.5T120-200Zm80-400h560v-160H200v160Zm213 200h134v-120H413v120Zm0 200h134v-120H413v120ZM200-400h133v-120H200v120Zm427 0h133v-120H627v120ZM200-200h133v-120H200v120Zm427 0h133v-120H627v120Z"/>
  </symbol>

  <symbol id="icon-chat" viewBox="0 -960 960 960">
    <path d="M240-400h320v-80H240v80Zm0-120h480v-80H240v80Zm0-120h480v-80H240v80ZM80-80v-720q0-33 23.5-56.5T160-880h640q33 0 56.5 23.5T880-800v480q0 33-23.5 56.5T800-240H240L80-80Zm126-240h594v-480H160v525l46-45Zm-46 0v-480 480Z"/>
  </symbol>

  <symbol id="icon-format_bold" viewBox="0 -960 960 960">
    <path d="M272-200v-560h221q65 0 120 40t55 111q0 51-23 78.5T602-491q25 11 55.5 41t30.5 90q0 89-65 124.5T501-200H272Zm121-112h104q48 0 58.5-24.5T566-372q0-11-10.5-35.5T494-432H393v120Zm0-228h93q33 0 48-17t15-38q0-24-17-39t-44-15h-95v109Z"/>
  </symbol>

  <symbol id="icon-format_italic" viewBox="0 -960 960 960">
    <path d="M200-200v-100h160l120-360H320v-100h400v100H580L460-300h140v100H200Z"/>
  </symbol>

  <symbol id="icon-format_underlined" viewBox="0 -960 960 960">
    <path d="M200-120v-80h560v80H200Zm280-160q-101 0-157-63t-56-167v-330h103v336q0 56 28 91t82 35q54 0 82-35t28-91v-336h103v330q0 104-56 167t-157 63Z"/>
  </symbol>

  <symbol id="icon-format_list_bulleted" viewBox="0 -960 960 960">
    <path d="M360-200v-80h480v80H360Zm0-240v-80h480v80H360Zm0-240v-80h480v80H360ZM200-160q-33 0-56.5-23.5T120-240q0-33 23.5-56.5T200-320q33 0 56.5 23.5T280-240q0 33-23.5 56.5T200-160Zm0-240q-33 0-56.5-23.5T120-480q0-33 23.5-56.5T200-560q33 0 56.5 23.5T280-480q0 33-23.5 56.5T200-400Zm0-240q-33 0-56.5-23.5T120-720q0-33 23.5-56.5T200-800q33 0 56.5 23.5T280-720q0 33-23.5 56.5T200-640Z"/>
  </symbol>

  <symbol id="icon-format_list_numbered" viewBox="0 -960 960 960">
    <path d="M120-80v-60h100v-30h-60v-60h60v-30H120v-60h120q17 0 28.5 11.5T280-280v40q0 17-11.5 28.5T240-200q17 0 28.5 11.5T280-160v40q0 17-11.5 28.5T240-80H120Zm0-280v-110q0-17 11.5-28.5T160-510h60v-30H120v-60h120q17 0 28.5 11.5T280-560v70q0 17-11.5 28.5T240-450h-60v30h100v60H120Zm60-280v-180h-60v-60h120v240h-60Zm180 440v-80h480v80H360Zm0-240v-80h480v80H360Zm0-240v-80h480v80H360Z"/>
  </symbol>

  <symbol id="icon-double_arrow" viewBox="0 -960 960 960">
    <path d="m242-200 200-280-200-280h98l200 280-200 280h-98Zm238 0 200-280-200-280h98l200 280-200 280h-98Z"/>
  </symbol>

  <symbol id="icon-info" viewBox="0 -960 960 960">
    <path d="M440-280h80v-240h-80v240Zm40-320q17 0 28.5-11.5T520-640q0-17-11.5-28.5T480-680q-17 0-28.5 11.5T440-640q0 17 11.5 28.5T480-600Zm0 520q-83 0-156-31.5T197-197q-54-54-85.5-127T80-480q0-83 31.5-156T197-763q54-54 127-85.5T480-880q83 0 156 31.5T763-763q54 54 85.5 127T880-480q0 83-31.5 156T763-197q-54 54-127 85.5T480-80Zm0-80q134 0 227-93t93-227q0-134-93-227t-227-93q-134 0-227 93t-93 227q0 134 93 227t227 93Zm0-320Z"/>
  </symbol>

  <symbol id="icon-check_circle" viewBox="0 -960 960 960">
    <path d="m424-296 282-282-56-56-226 226-114-114-56 56 170 170Zm56 216q-83 0-156-31.5T197-197q-54-54-85.5-127T80-480q0-83 31.5-156T197-763q54-54 127-85.5T480-880q83 0 156 31.5T763-763q54 54 85.5 127T880-480q0 83-31.5 156T763-197q-54 54-127 85.5T480-80Zm0-80q134 0 227-93t93-227q0-134-93-227t-227-93q-134 0-227 93t-93 227q0 134 93 227t227 93Zm0-320Z"/>
  </symbol>

  <symbol id="icon-check_circle_black" viewBox="0 -960 960 960">
    <circle cx="480" cy="-480" r="400" fill="black"/>
    <path d="m424-296 282-282-56-56-226 226-114-114-56 56 170 170Z" fill="white"/>
  </symbol>

  <symbol id="icon-error_circle" viewBox="0 -960 960 960">
    <path d="M480-280q17 0 28.5-11.5T520-320q0-17-11.5-28.5T480-360q-17 0-28.5 11.5T440-320q0 17 11.5 28.5T480-280Zm-40-160h80v-240h-80v240Zm40 360q-83 0-156-31.5T197-197q-54-54-85.5-127T80-480q0-83 31.5-156T197-763q54-54 127-85.5T480-880q83 0 156 31.5T763-763q54 54 85.5 127T880-480q0 83-31.5 156T763-197q-54 54-127 85.5T480-80Zm0-80q134 0 227-93t93-227q0-134-93-227t-227-93q-134 0-227 93t-93 227q0 134 93 227t227 93Zm0-320Z"/>
  </symbol>

  <symbol id="icon-external_link" viewBox="0 -960 960 960">
    <path d="M200-120q-33 0-56.5-23.5T120-200v-560q0-33 23.5-56.5T200-840h280v80H200v560h560v-280h80v280q0 33-23.5 56.5T760-120H200Zm188-212-56-56 372-372H560v-80h280v280h-80v-144L388-332Z"/>
  </symbol>

  <symbol id="icon-down_arrow" viewBox="0 -960 960 960">
    <path d="M440-800v487L216-537l-56 57 320 320 320-320-56-57-224 224v-487h-80Z"/>
  </symbol>

  <symbol id="icon-close" viewBox="0 -960 960 960">
    <path d="m256-200-56-56 224-224-224-224 56-56 224 224 224-224 56 56-224 224 224 224-56 56-224-224-224 224Z"/>
  </symbol>

  <symbol id="icon-solid-left_arrow" viewBox="0 -960 960 960">
    <path d="M560-280 360-480l200-200v400Z"/>
  </symbol>

  <symbol id="icon-solid-right_arrow" viewBox="0 -960 960 960">
    <path d="M400-280v-400l200 200-200 200Z"/>
  </symbol>

  <symbol id="icon-solid-down_arrow" viewBox="0 -960 960 960">
    <path d="M480-360 280-560h400L480-360Z"/>
  </symbol>

  <symbol id="icon-right-panel_close" viewBox="0 -960 960 960">
    <path d="M300-640v320l160-160-160-160ZM200-120q-33 0-56.5-23.5T120-200v-560q0-33 23.5-56.5T200-840h560q33 0 56.5 23.5T840-760v560q0 33-23.5 56.5T760-120H200Zm440-80h120v-560H640v560Zm-80 0v-560H200v560h360Zm80 0h120-120Z"/>
  </symbol>

  <symbol id="icon-keyboard_arrow_down" viewBox="0 -960 960 960">
    <path d="M480-325.35 232.35-573 291-631.65l189 189 189-189L727.65-573 480-325.35Z"/>
  </symbol>
</svg>
